<?xml version="1.0" standalone="no"?><!DOCTYPE svg PUBLIC "-//W3C//DTD SVG 1.1//EN" "http://www.w3.org/Graphics/SVG/1.1/DTD/svg11.dtd"><svg t="1610950538976" class="icon" viewBox="0 0 1055 1024" version="1.1" xmlns="http://www.w3.org/2000/svg" p-id="2762" xmlns:xlink="http://www.w3.org/1999/xlink" width="206.0546875" height="200"><defs><style type="text/css"></style></defs><path d="M93.091545 0H961.935303c51.415749 0 93.091545 41.676797 93.091546 93.091545v620.60197c0 51.414749-41.675797 93.091545-93.091546 93.091546H93.091545C41.676797 806.786061 0 765.108264 0 713.693515V93.091545C0 41.676797 41.676797 0 93.091545 0z m0 62.059697A31.026849 31.026849 0 0 0 62.059697 93.091545v620.60197a31.026849 31.026849 0 0 0 31.031848 31.032849H961.935303a31.026849 31.026849 0 0 0 31.032849-31.032849V93.091545A31.026849 31.026849 0 0 0 961.935303 62.059697H93.091545z" fill="#ffffff" p-id="2763"></path><path d="M217.208939 279.268636h620.60297c20.684899 0 31.032848 10.342949 31.032849 31.032849 0 20.684899-10.342949 31.031848-31.032849 31.031848H217.209939c-20.684899 0-31.031848-10.34195-31.031848-31.031848 0.005-20.684899 10.346949-31.032848 31.031848-31.032849z m0 217.21494h620.60297c20.684899 0 31.032848 10.342949 31.032849 31.032848 0 20.684899-10.342949 31.031848-31.032849 31.031849H217.209939c-20.684899 0-31.031848-10.34195-31.031848-31.031849 0.005-20.689899 10.346949-31.032848 31.031848-31.032848z" fill="#ffffff" p-id="2764"></path><path d="M341.333333 837.811909h372.360182c20.684899 0 31.032848 10.342949 31.032849 31.032849 0 20.683899-10.342949 31.031848-31.032849 31.031848H341.333333c-20.684899 0-31.031848-10.34195-31.031848-31.031848 0-20.684899 10.34195-31.032848 31.031848-31.032849zM155.150242 961.935303h744.726364c20.684899 0 31.031848 10.342949 31.031849 31.032849 0 20.684899-10.34195 31.031848-31.031849 31.031848h-744.726364c-20.683899 0-31.031848-10.34195-31.031848-31.031848s10.347949-31.032848 31.031848-31.032849z" fill="#ffffff" p-id="2765"></path><path d="M310.301485 372.360182V248.241788c0-20.684899 10.34195-31.031848 31.031848-31.031849 20.684899 0 31.031848 10.34195 31.031849 31.031849v124.119394c0 20.683899-10.34195 31.031848-31.031849 31.031848s-31.031848-10.342949-31.031848-31.032848z m372.360182 217.214939V465.451727c0-20.684899 10.34195-31.031848 31.031848-31.031848 20.684899 0 31.032848 10.34195 31.032849 31.031848v124.119394c0 20.683899-10.342949 31.030848-31.032849 31.030849-20.684899 0-31.031848-10.34195-31.031848-31.026849z" fill="#ffffff" p-id="2766"></path></svg>