<?xml version="1.0" standalone="no"?><!DOCTYPE svg PUBLIC "-//W3C//DTD SVG 1.1//EN" "http://www.w3.org/Graphics/SVG/1.1/DTD/svg11.dtd"><svg t="1610951570788" class="icon" viewBox="0 0 1024 1024" version="1.1" xmlns="http://www.w3.org/2000/svg" p-id="7975" xmlns:xlink="http://www.w3.org/1999/xlink" width="400" height="400"><defs><style type="text/css"></style></defs><path d="M932.27275391 453.22402345L593.11074219 100.47763673C572.03632812 78.57880859 543.86298828 66.52636719 513.66992189 66.52636719c-30.19130859 0-58.36464844 12.05244141-79.43994142 33.95126952L95.06796875 453.22402345c-34.99628906 36.40517578-30.48925781 67.87880859-24.70781252 81.02109374 4.12470703 9.32783203 18.04746094 34.96289063 58.15019533 34.96289062h49.71005861v271.36054688c0 61.61044922 44.28193359 119.61826172 107.20810545 119.61826172h144.3788086V673.00771484c0-30.78984375-4.66347655-47.94257813 26.80927734-47.94257813h114.10927735c31.47802734 0 26.81015625 17.15273438 26.81015625 47.94257813v287.17822266h144.38496093c62.91826172 0 107.19931641-58.0078125 107.19931641-119.61826172V569.20800781h49.71533203c40.10361328 0 54.02197266-25.63505859 58.1475586-34.96289062 5.78056641-13.14228516 10.28671875-44.61591797-24.71044922-81.02109376m-33.44238282 60.13212891H793.20957031v327.21240235c0 30.78984375-19.84833984 63.76728517-51.29472656 63.76728515H653.43974609v-231.328125c0-61.61132813-19.75693359-103.80058594-82.71386718-103.80058593H456.61572266c-62.95605469 0-82.71474609 42.1892578-82.71474609 103.80058593V904.33496094H285.42763673c-31.44814453 0-51.29648438-32.97744141-51.29648439-63.76728516V513.35615234H128.51035156c-0.98173828 0-1.88613281-3.84345703-2.70615234-3.89794923 1.93974609-3.38378906 5.2734375-11.94960937 10.81054687-17.69765624L475.80664062 139.26025391c10.12675781-10.54951172 24.43271483-17.01474609 38.30009766-16.87763672 13.86826172-0.13798828 27.30146484 6.32724609 37.42734375 16.87763672l339.19277344 352.50029296c5.54238281 5.74804688 8.86992187 14.31386719 10.80878906 17.69765626-0.82001953 0.05449219-1.71738281 3.89794922-2.70527344 3.89794921" fill="#ffffff" p-id="7976"></path><path d="M273.63834636 457.21777344c-10.38603516-10.38515625-10.36582031-27.21445312 0-37.57939453l137.784375-137.784375c10.38955078-10.38955078 27.19423828-10.38515625 37.58027343 0 10.36933594 10.36757812 10.38603516 27.19423828 0.00087891 37.58115234L311.2186198 457.21777344c-10.36582031 10.36582031-27.2109375 10.36845703-37.58027344 0" fill="#ffffff" p-id="7977"></path></svg>