<?xml version="1.0" standalone="no"?><!DOCTYPE svg PUBLIC "-//W3C//DTD SVG 1.1//EN" "http://www.w3.org/Graphics/SVG/1.1/DTD/svg11.dtd"><svg t="1610951899279" class="icon" viewBox="0 0 1024 1024" version="1.1" xmlns="http://www.w3.org/2000/svg" p-id="11542" xmlns:xlink="http://www.w3.org/1999/xlink" width="400" height="400"><defs><style type="text/css"></style></defs><path d="M213.3 469.3a64 64 0 1 0 128 0 64 64 0 1 0-128 0z" fill="#ffffff" p-id="11543"></path><path d="M344.7 978.2c-5.2 0-10.4-0.8-15.5-2.5-13.8-4.5-24.8-14.8-30.4-28.1l-39.3-94.2H128.3C57.5 853.3 0 795.8 0 725.1V213.6C0 142.9 57.5 85.3 128.3 85.3h767.5c70.7 0 128.3 57.5 128.3 128.3v511.5c0 70.7-57.5 128.3-128.3 128.3H566.5L370.2 971.1c-7.7 4.7-16.6 7.1-25.5 7.1z m-18.3-80.3s-0.1 0 0 0zM128.3 170.7c-23.7 0-42.9 19.3-42.9 42.9v511.5c0 23.7 19.3 42.9 42.9 42.9h188.2l45.3 108.7L542.9 768h352.9c23.7 0 42.9-19.3 42.9-42.9V213.6c0-23.7-19.3-42.9-42.9-42.9H128.3z" fill="#ffffff" p-id="11544"></path><path d="M448 469.3a64 64 0 1 0 128 0 64 64 0 1 0-128 0zM682.7 469.3a64 64 0 1 0 128 0 64 64 0 1 0-128 0z" fill="#ffffff" p-id="11545"></path></svg>