<?xml version="1.0" standalone="no"?><!DOCTYPE svg PUBLIC "-//W3C//DTD SVG 1.1//EN" "http://www.w3.org/Graphics/SVG/1.1/DTD/svg11.dtd"><svg t="1610954693595" class="icon" viewBox="0 0 1280 1024" version="1.1" xmlns="http://www.w3.org/2000/svg" p-id="3841" xmlns:xlink="http://www.w3.org/1999/xlink" width="500" height="400"><defs><style type="text/css"></style></defs><path d="M156.672 269.994667a247.466667 247.466667 0 0 0 495.018667 0 247.466667 247.466667 0 1 0-495.018667 0zM608.384 627.498667H200.021333a176 176 0 0 0-176 176v154.026666c0 24.32 19.626667 43.946667 43.946667 43.946667h672.426667c24.32 0 43.946667-19.626667 43.946666-43.946667v-154.026666a176 176 0 0 0-175.957333-176z" fill="#1890FF" p-id="3842"></path><path d="M774.058667 290.346667a199.381333 199.381333 0 1 0 398.762666 0 199.381333 199.381333 0 1 0-398.762666 0zM1080.704 600.277333H816.213333a199.04 199.04 0 0 1 77.44 157.568v175.189334h318.976c24.32 0 44.032-19.669333 44.032-43.989334v-112.768a176.085333 176.085333 0 0 0-176-176z" fill="#B0B9FF" p-id="3843"></path></svg>