<?xml version="1.0" standalone="no"?><!DOCTYPE svg PUBLIC "-//W3C//DTD SVG 1.1//EN" "http://www.w3.org/Graphics/SVG/1.1/DTD/svg11.dtd"><svg t="1610952137983" class="icon" viewBox="0 0 1024 1024" version="1.1" xmlns="http://www.w3.org/2000/svg" p-id="17480" xmlns:xlink="http://www.w3.org/1999/xlink" width="400" height="400"><defs><style type="text/css"></style></defs><path d="M424.30948 484.891714l-287.541863-150.739058a78.839371 78.839371 0 0 0-34.470895-8.703048 47.724555 47.724555 0 0 0-49.601682 49.032856v405.345859a105.403575 105.403575 0 0 0 60.181858 84.584521l287.541863 150.739058a78.953137 78.953137 0 0 0 34.470894 8.646165 47.724555 47.724555 0 0 0 49.601683-49.032856v-405.232094a105.403575 105.403575 0 0 0-60.181858-84.584521z m6.541506 484.754057a35.836078 35.836078 0 0 1-12.343538-6.029562l-281.739831-147.155451a55.289949 55.289949 0 0 1-30.489108-36.632435V379.772552a36.120491 36.120491 0 0 1 6.598389 2.502837l287.484981 150.682175a55.346831 55.346831 0 0 1 30.489107 36.632435v400.169537z m457.222849-703.240368a56.029423 56.029423 0 0 0 34.982838-48.748442 54.89177 54.89177 0 0 0-34.755308-47.553907L567.255613 12.253663a135.8358 135.8358 0 0 0-58.702909-12.286655 140.045117 140.045117 0 0 0-62.115868 13.424309l-324.231181 164.618427a56.029423 56.029423 0 0 0-34.982838 48.748443 54.948653 54.948653 0 0 0 34.81219 47.553907l320.988869 157.849391a135.8358 135.8358 0 0 0 58.702909 12.286655 139.931352 139.931352 0 0 0 62.058986-13.424309l324.231181-164.618428zM501.556137 391.149084a83.105571 83.105571 0 0 1-34.982838-6.769037L145.527547 226.18936l0.796357-0.398178 324.231181-164.618428a87.258006 87.258006 0 0 1 37.826971-7.622277 83.105571 83.105571 0 0 1 34.982838 6.769037l321.045753 157.849391-0.796358 0.398178-324.231181 164.618428a87.258006 87.258006 0 0 1-37.826971 7.622277z" fill="#ffffff" p-id="17481"></path><path d="M970.610579 383.640573a47.041963 47.041963 0 0 0-48.862208-48.350264 77.644836 77.644836 0 0 0-34.129598 8.532399l-283.275663 148.6344a103.924626 103.924626 0 0 0-59.328618 83.446867v399.657593a47.041963 47.041963 0 0 0 48.862208 48.350264 77.644836 77.644836 0 0 0 34.129598-8.5324l282.820602-148.349986a26.450438 26.450438 0 1 0-23.037479-47.497024l-283.218781 148.577517a36.404905 36.404905 0 0 1-6.484623 2.445955v-394.538154a54.550474 54.550474 0 0 1 30.034046-36.120491l283.218781-148.577517a36.234257 36.234257 0 0 1 6.484624-2.445954v250.340601a26.450438 26.450438 0 1 0 52.843994 0V383.640573z" fill="#ffffff" p-id="17482"></path></svg>