<?xml version="1.0" standalone="no"?><!DOCTYPE svg PUBLIC "-//W3C//DTD SVG 1.1//EN" "http://www.w3.org/Graphics/SVG/1.1/DTD/svg11.dtd"><svg t="1610952274696" class="icon" viewBox="0 0 1024 1024" version="1.1" xmlns="http://www.w3.org/2000/svg" p-id="944" xmlns:xlink="http://www.w3.org/1999/xlink" width="400" height="400"><defs><style type="text/css"></style></defs><path d="M824.84329687 669.74725563c-42.41943008-42.41943008-73.57119905-39.10541211-88.81568174-33.14017976-17.89569707 6.62803595-30.48896537 24.52373301-31.81457256 44.40784088-0.66280359 17.89569707 7.95364315 34.46578693 21.87251864 41.09382289 85.50166377 57.00110917 124.60707587 119.9674507 139.85155856 224.02761512 3.31401797 23.19812583 23.19812583 40.4310193 46.39625164 40.4310193 1.98841078 0 4.63962516 0 6.62803596-0.66280359 12.5932683-1.98841078 23.86092942-8.61644674 31.81457256-19.22130425a45.73344805 45.73344805 0 0 0 7.95364314-34.46578695c-17.23289347-116.65343273-57.00110917-194.86425695-133.8863262-262.47022364zM818.21526092 333.04302933c0-78.87362782-30.48896537-153.10763045-86.16446735-208.78313244-55.67550198-55.67550198-129.24670103-86.16446736-208.12032886-86.16446736-78.87362782 0-152.44482686 30.48896537-208.12032885 86.16446736-55.67550198 55.67550198-86.16446736 129.90950463-86.16446736 208.78313244s30.48896537 153.10763045 86.16446736 208.78313245c9.94205392 9.94205392 20.54691145 19.22130427 31.81457257 27.83775099-46.39625165 19.22130427-88.81568174 46.39625165-127.25829026 80.199235a468.60214171 468.60214171 0 0 0-155.09604124 283.01713509c-1.98841078 12.5932683 1.3256072 24.52373301 8.61644673 34.46578695a46.19741058 46.19741058 0 0 0 37.77980493 19.88410784c23.19812583 0 43.08223369-17.23289347 47.05905524-40.43101928 26.51214381-180.94538145 183.59659583-317.48292204 365.20478088-317.48292205 78.87362782 0 152.44482686-30.48896537 208.12032886-86.16446735 55.67550198-57.00110917 86.16446736-131.23511182 86.16446735-210.10873964z m-94.1181105 0c0 110.68820037-89.47848533 200.8294893-200.16668571 200.8294893-110.02539678 0-200.16668571-90.14128893-200.1666857-200.8294893 0-110.68820037 89.47848533-200.16668571 200.1666857-200.1666857 110.02539678-0.66280359 200.16668571 89.47848533 200.16668571 200.1666857z" fill="#ffffff" p-id="945"></path><path d="M491.45308855 170.65614853c-79.53643141 7.29083955-137.86314777 77.54802062-130.57230823 157.08445204 1.98841078 21.20971504 18.55850066 39.10541211 40.43101931 41.75662649h9.94205392c12.5932683-1.3256072 23.19812583-6.62803595 31.15176897-16.57008988 7.95364315-9.27925033 11.93046471-21.20971504 10.60485751-33.80298335-2.65121438-28.50055458 18.55850066-53.6870912 46.39625167-55.67550198a48.38466243 48.38466243 0 0 0 31.81457257-16.57008988c7.95364315-9.27925033 11.93046471-21.20971504 10.60485751-33.80298334a47.58929812 47.58929812 0 0 0-50.37307323-42.4194301z" fill="#ffffff" p-id="946"></path></svg>